<?xml version="1.0" encoding="UTF-8" standalone="no"?>
<svg width="12px" height="12px" viewBox="0 0 12 12" version="1.1" xmlns="http://www.w3.org/2000/svg" xmlns:xlink="http://www.w3.org/1999/xlink">
    <!-- Generator: Sketch 3.7.1 (28215) - http://www.bohemiancoding.com/sketch -->
    <title>Fill 1 Copy 3</title>
    <desc>Created with Sketch.</desc>
    <defs></defs>
    <g id="Symbols" stroke="none" stroke-width="1" fill="none" fill-rule="evenodd">
        <g id="Red-stars-Copy" fill="#CC0000">
            <path d="M11.9761978,4.5528 C11.9159978,4.3718 11.7505979,4.2466 11.5603979,4.2376 L7.77599934,4.0572 L6.43459984,0.3064 C6.36899986,0.1226 6.19499993,0 6,0 C5.80500007,0 5.63100014,0.1226 5.56540016,0.3064 L4.22420066,4.0572 L0.439602056,4.2376 C0.249402126,4.2466 0.0840021872,4.3718 0.0238022094,4.5528 C-0.0365977682,4.734 0.0204022107,4.9334 0.167002156,5.0552 L3.14700105,7.5284 L2.11980143,11.4196 C2.07020145,11.6074 2.14320143,11.8064 2.30260137,11.9172 C2.46180131,12.028 2.67380123,12.0274 2.83220117,11.9154 L6,9.6774 L9.16779883,11.9154 C9.2475988,11.9718 9.34079876,12 9.43399873,12 C9.5261987,12 9.61819866,11.9724 9.69739863,11.9172 C9.85679857,11.8064 9.92979855,11.6074 9.88019857,11.4196 L8.85299895,7.5284 L11.8329978,5.0552 C11.9795978,4.9334 12.0365978,4.734 11.9761978,4.5528" id="Fill-1-Copy-3"></path>
        </g>
    </g>
</svg>