<?xml version="1.0" encoding="UTF-8" standalone="no"?>
<svg width="16px" height="16px" viewBox="0 0 16 16" version="1.1" xmlns="http://www.w3.org/2000/svg" xmlns:xlink="http://www.w3.org/1999/xlink">
    <!-- Generator: Sketch 3.7.1 (28215) - http://www.bohemiancoding.com/sketch -->
    <title>Group</title>
    <desc>Created with Sketch.</desc>
    <defs></defs>
    <g id="Symbols" stroke="none" stroke-width="1" fill="none" fill-rule="evenodd">
        <g id="BigRed-stars-Copy" transform="translate(-48.000000, 0.000000)">
            <g id="Group" transform="translate(48.000000, 0.000000)">
                <path d="M8,12.9033049 L3.77626823,15.8875958 C3.56506831,16.0366637 3.28240174,16.0374637 3.07013516,15.8899959 C2.8576019,15.7419947 2.7602686,15.4766592 2.82640191,15.2265238 L4.19600141,10.0379483 L0.222669542,6.74032147 C0.0272029476,6.57818682 -0.0487970243,6.31205132 0.0317362792,6.07044936 C0.112002916,5.82938073 0.332536168,5.66217937 0.586136074,5.65017927 L5.63226754,5.40964399 L7.42053355,0.408536655 C7.50800018,0.163467996 7.7400001,0 8,0 L8,12.9033049 Z" id="Fill-1" fill="#CC0000"></path>
                <path d="M16,12.9033049 L11.7762682,15.8875958 C11.5650683,16.0366637 11.2824017,16.0374637 11.0701352,15.8899959 C10.8576019,15.7419947 10.7602686,15.4766592 10.8264019,15.2265238 L12.1960014,10.0379483 L8.22266954,6.74032147 C8.02720295,6.57818682 7.95120298,6.31205132 8.03173628,6.07044936 C8.11200292,5.82938073 8.33253617,5.66217937 8.58613607,5.65017927 L13.6322675,5.40964399 L15.4205335,0.408536655 C15.5080002,0.163467996 15.7400001,0 16,0 L16,12.9033049 Z" id="Fill-1" fill="#CCCCCC" transform="translate(12.000000, 8.000000) scale(-1, 1) translate(-12.000000, -8.000000) "></path>
            </g>
        </g>
    </g>
</svg>