<?xml version="1.0" encoding="UTF-8" standalone="no"?>
<svg width="12px" height="12px" viewBox="0 0 12 12" version="1.1" xmlns="http://www.w3.org/2000/svg" xmlns:xlink="http://www.w3.org/1999/xlink">
    <!-- Generator: Sketch 3.7.1 (28215) - http://www.bohemiancoding.com/sketch -->
    <title>Fill 1 Copy 4</title>
    <desc>Created with Sketch.</desc>
    <defs></defs>
    <g id="Symbols" stroke="none" stroke-width="1" fill="none" fill-rule="evenodd">
        <g id="Red-stars-Copy" transform="translate(-48.000000, 0.000000)" fill="#CCCCCC">
            <path d="M59.9761978,4.5528 C59.9159978,4.3718 59.7505979,4.2466 59.5603979,4.2376 L55.7759993,4.0572 L54.4345998,0.3064 C54.3689999,0.1226 54.1949999,0 54,0 C53.8050001,0 53.6310001,0.1226 53.5654002,0.3064 L52.2242007,4.0572 L48.4396021,4.2376 C48.2494021,4.2466 48.0840022,4.3718 48.0238022,4.5528 C47.9634022,4.734 48.0204022,4.9334 48.1670022,5.0552 L51.1470011,7.5284 L50.1198014,11.4196 C50.0702015,11.6074 50.1432014,11.8064 50.3026014,11.9172 C50.4618013,12.028 50.6738012,12.0274 50.8322012,11.9154 L54,9.6774 L57.1677988,11.9154 C57.2475988,11.9718 57.3407988,12 57.4339987,12 C57.5261987,12 57.6181987,11.9724 57.6973986,11.9172 C57.8567986,11.8064 57.9297985,11.6074 57.8801986,11.4196 L56.8529989,7.5284 L59.8329978,5.0552 C59.9795978,4.9334 60.0365978,4.734 59.9761978,4.5528" id="Fill-1-Copy-4"></path>
        </g>
    </g>
</svg>